# xmcd
#
# Track frame offsets: 
#        150
#        34414
#        54133
#        84680
#        108840
#        135588
#        156978
#        175913
#        204740
#        235036
#        261085
#        287420
#        315289
#
# Disc length: 4461 seconds
#
# Revision: 0
# Processed by: cddbd v1.5.2PL0 Copyright (c) Steve Scherf et al.
# Submitted via: ExactAudioCopy v0.99pb5
#
DISCID=a8116b0d
DTITLE=Michael Melone - Especially For You
DYEAR=2007
DGENRE=Blues
TTITLE0=Andrew Lloyd Weber Medley
TTITLE1=How Do You Kepp the Music Playing
TTITLE2=Two for the Road - In the Wee Small Hours of the Morning
TTITLE3=Somewhere in Time
TTITLE4=Even Now - Still
TTITLE5=Stardust
TTITLE6=Unchained Melody
TTITLE7=The Hungry Years - Through the Years
TTITLE8=Come in From the Rain - A House is Not a Home
TTITLE9=My Foolish Heart - These Foolish Things
TTITLE10=As Time Goes By
TTITLE11=The Nearness of You - The Very Thought of You
TTITLE12=Rhapsody in Blue
EXTD=
EXTT0=
EXTT1=
EXTT2=
EXTT3=
EXTT4=
EXTT5=
EXTT6=
EXTT7=
EXTT8=
EXTT9=
EXTT10=
EXTT11=
EXTT12=
PLAYORDER=
